Coordinates
nRows=9
nColumns=38

# SIMM Motion File Header:
name Coordinates
datacolumns 38
datarows 9
otherdata 1
range 1.71500000000000010000 1.72300000000000010000

Units are S.I. units (second, meters, Newtons, ...)
Angles are in degrees.

endheader
time	pelvis_tilt	pelvis_list	pelvis_rotation	pelvis_tx	pelvis_ty	pelvis_tz	hip_flexion_r	hip_adduction_r	hip_rotation_r	knee_angle_r	ankle_angle_r	subtalar_angle_r	mtp_angle_r	hip_flexion_l	hip_adduction_l	hip_rotation_l	knee_angle_l	ankle_angle_l	subtalar_angle_l	mtp_angle_l	lumbar_extension	lumbar_bending	lumbar_rotation	arm_flex_r	arm_add_r	arm_rot_r	elbow_flex_r	pro_sup_r	wrist_flex_r	wrist_dev_r	arm_flex_l	arm_add_l	arm_rot_l	elbow_flex_l	pro_sup_l	wrist_flex_l	wrist_dev_l
      1.71500000000000010000	    -14.75009893972653300000	      0.88491509903894561000	     -0.80803292934912885000	      0.95140032609666714000	      0.97557137425204166000	     -0.34871910668458367000	     13.65888951514117300000	      3.34932260344868780000	     -1.44726751958139690000	    -32.44412518418653200000	     20.92836983065247100000	      0.00000000000000129088	     -0.00000000000002375119	     52.42223384372963600000	      2.52053776300739770000	     -0.61398399251569491000	   -100.87637323821421000000	      4.86880520848824360000	     -0.00000000000000226322	      0.00000000000000190736	      0.04942101410985994000	      4.05815496260273360000	     10.67634146067434000000	    -16.17129863982509600000	    -25.37083352733845800000	     -8.66435362336537550000	    109.12330246676149000000	    108.85420018199638000000	     -0.00000000000000042136	     -0.00000000000000042903	    -37.68312014591060000000	    -18.02376461324134700000	     -1.16216188266889840000	    105.04728839608958000000	    104.40037570108539000000	      0.00000000000000491653	      0.00000000000000859981
      1.71600000000000000000	    -14.76713424908676600000	      0.94573994116642424000	     -0.76319781893325211000	      0.95161919735520395000	      0.97605051908091012000	     -0.34865865549806602000	     13.23729418907608100000	      3.27757450625832460000	     -1.45282996522694470000	    -32.07372234937344000000	     20.57141777809374300000	      0.00000000000000149347	     -0.00000000000002438373	     52.59644482275364700000	      2.58157584021284770000	     -0.65025023424927475000	   -100.48866798444726000000	      4.91033132576356300000	     -0.00000000000000230322	      0.00000000000000191499	      0.10758382574209011000	      3.95879520512521750000	     10.73408452180950500000	    -16.09330382212194300000	    -25.30947698810797800000	     -8.62797115963983430000	    109.40734859153720000000	    108.88312885442018000000	     -0.00000000000000042605	     -0.00000000000000039811	    -37.90734361425097600000	    -18.06539508887111000000	     -1.26624003629226260000	    105.28652958263463000000	    104.39166390610947000000	      0.00000000000000500891	      0.00000000000000875669
      1.71700000000000010000	    -14.78382567266674400000	      1.00648757571807160000	     -0.71647314134277296000	      0.95184459222529394000	      0.97653620845408706000	     -0.34859818779940660000	     12.81513945104179800000	      3.20561022178209900000	     -1.46129156857681200000	    -31.70098683397682400000	     20.20247744659315700000	      0.00000000000000170577	     -0.00000000000002504314	     52.76599518592665600000	      2.64259233177651830000	     -0.68723766292003019000	   -100.09518028810308000000	      4.95255679595316070000	     -0.00000000000000233608	      0.00000000000000191404	      0.16589917324394599000	      3.85874427625372670000	     10.78774784410722100000	    -16.01534091940258300000	    -25.24707538200480500000	     -8.58965600294912330000	    109.69132659210946000000	    108.91564326542635000000	     -0.00000000000000043114	     -0.00000000000000037274	    -38.13334348489868100000	    -18.10561254604068500000	     -1.37391788480345810000	    105.52651722084697000000	    104.39180403464587000000	      0.00000000000000510793	      0.00000000000000891304
      1.71800000000000000000	    -14.80019542699323200000	      1.06713011890687140000	     -0.66783055123804580000	      0.95207625249414207000	      0.97702815782536812000	     -0.34853782239555425000	     12.39258829832326100000	      3.13347992913020470000	     -1.47279094353407070000	    -31.32612016904974800000	     19.82163076642865500000	      0.00000000000000192262	     -0.00000000000002568701	     52.93093965241946800000	      2.70359936939531220000	     -0.72495838905648946000	    -99.69597628695247200000	      4.99542386099196630000	     -0.00000000000000236104	      0.00000000000000191455	      0.22433959268988765000	      3.75804325137539360000	     10.83733796291375600000	    -15.93743571305089400000	    -25.18369404576322500000	     -8.54941990464623200000	    109.97515570687271000000	    108.95170509791549000000	     -0.00000000000000043624	     -0.00000000000000034744	    -38.36101439171002900000	    -18.14438550884862200000	     -1.48505679857621310000	    105.76706408360171000000	    104.40009447685362000000	      0.00000000000000520205	      0.00000000000000906857
      1.71900000000000010000	    -14.81626686158819500000	      1.12764051462663420000	     -0.61724372340518541000	      0.95231391507456731000	      0.97752607964346738000	     -0.34847768055320055000	     11.96980485877565100000	      3.06123507586583530000	     -1.48746534263142060000	    -30.94932560992777600000	     19.42897217591766800000	      0.00000000000000213229	     -0.00000000000002628046	     53.09133405810297300000	      2.76461238303741030000	     -0.76342432874284138000	    -99.29112018398326700000	      5.03887233513944910000	     -0.00000000000000238608	      0.00000000000000191058	      0.28287830477806875000	      3.65673319719793490000	     10.88286752338735400000	    -15.85962177376662100000	    -25.11940007350109400000	     -8.50728136636696240000	    110.25876761181171000000	    108.99126342549717000000	     -0.00000000000000044171	     -0.00000000000000032681	    -38.59024877933681800000	    -18.18168568027224600000	     -1.59951184217538580000	    106.00799113009315000000	    104.41581771626335000000	      0.00000000000000528376	      0.00000000000000922164
      1.72000000000000000000	    -14.83206404090074700000	      1.18799245805785180000	     -0.56468828307008623000	      0.95255731288061229000	      0.97802968410913615000	     -0.34841788591153117000	     11.54695369170831800000	      2.98892837977517530000	     -1.50545047406122910000	    -30.57080768940081200000	     19.02460884592652600000	      0.00000000000000229842	     -0.00000000000002683870	     53.24723470448543600000	      2.82565017209114670000	     -0.80264674968195571000	    -98.88067417348605700000	      5.08284026126448740000	     -0.00000000000000241495	      0.00000000000000188789	      0.34148890251908204000	      3.55485523622579480000	     10.92435495986672000000	    -15.78193987292516600000	    -25.05426223527393100000	     -8.46326538122052870000	    110.54210599318115000000	    109.03425609010205000000	     -0.00000000000000044791	     -0.00000000000000030785	    -38.82093700362273100000	    -18.21748788449390200000	     -1.71713257927959000000	    106.24912756640505000000	    104.43824646367409000000	      0.00000000000000538566	      0.00000000000000937409
      1.72100000000000010000	    -14.84761138614039000000	      1.24816032112933770000	     -0.51014174053343631000	      0.95280617570387383000	      0.97853867983801013000	     -0.34835856438373319000	     11.12419915952213000000	      2.91661383134257420000	     -1.52688031318659470000	    -30.19077176646424500000	     18.60866117883412900000	      0.00000000000000242131	     -0.00000000000002740612	     53.39869778584176900000	      2.88673496965274180000	     -0.84263582189426434000	    -98.46469837528893300000	      5.12726455399075580000	     -0.00000000000000245071	      0.00000000000000187173	      0.40014511312196355000	      3.45245061082902850000	     10.96182417541974800000	    -15.70443740799418100000	    -24.98835088651591700000	     -8.41740317286389230000	    110.82512611221077000000	    109.08061108253587000000	     -0.00000000000000045421	     -0.00000000000000029289	    -39.05296744957015400000	    -18.25177000741711100000	     -1.83776387766116890000	    106.49031089930837000000	    104.46664972477571000000	      0.00000000000000549465	      0.00000000000000952685
      1.72200000000000000000	    -14.86293362246672200000	      1.30811904978752660000	     -0.45358349264585607000	      0.95306023093245329000	      0.97905277404818247000	     -0.34829984397725361000	     10.70170521496125100000	      2.84434671763554330000	     -1.55188684396602980000	    -29.80942375566638300000	     18.18126334939193700000	      0.00000000000000253007	     -0.00000000000002801350	     53.54577918321289300000	      2.94789238688878450000	     -0.88340021038443439000	    -98.04325080740125000000	      5.17208152670836000000	     -0.00000000000000248838	      0.00000000000000186311	      0.45882091245660850000	      3.34956078975660710000	     10.99530428286992400000	    -15.62716786820949900000	    -24.92173784272296500000	     -8.36973191678514540000	    111.10779427234827000000	    109.13024793889583000000	     -0.00000000000000046083	     -0.00000000000000028687	    -39.28622671885886300000	    -18.28451292010515400000	     -1.96124669864204120000	    106.73138691472316000000	    104.50029833912188000000	      0.00000000000000560251	      0.00000000000000967996
      1.72300000000000010000	    -14.87805618574777900000	      1.36784403846646520000	     -0.39499494437244159000	      0.95331920401029269000	      0.97957167197733530000	     -0.34824185449395079000	     10.27963582259582900000	      2.77218362311387080000	     -1.58059968666982460000	    -29.42697009513927500000	     17.74256275482785500000	      0.00000000000000265474	     -0.00000000000002865185	     53.68853483243727700000	      3.00915115302325730000	     -0.92494677715106921000	    -97.61638744507610000000	      5.21722721625859890000	     -0.00000000000000251741	      0.00000000000000185036	      0.51749117039399106000	      3.24622761726056150000	     11.02482945849619600000	    -15.55019034152158000000	    -24.85449618367563200000	     -8.32029441860391470000	    111.39008706968011000000	    109.18307916451249000000	     -0.00000000000000046765	     -0.00000000000000027977	    -39.52059993200840900000	    -18.31570037456834400000	     -2.08741884968931090000	    106.97220950370470000000	    104.53846932129372000000	      0.00000000000000571785	      0.00000000000000983303
